<svg xmlns="http://www.w3.org/2000/svg" width="1889.672" height="2342.904" viewBox="0 0 1889.672 2342.904">
  <g id="Group_35" data-name="Group 35" transform="matrix(0.891, 0.454, -0.454, 0.891, 641.037, -2217.734)" opacity="0.5">
    <g id="Group_15" data-name="Group 15" transform="translate(1052 1953)">
      <path id="Path_24" data-name="Path 24" d="M318.527,1648.9a71.705,71.705,0,0,1-47.993-18.379l-73.562-65.933a71.977,71.977,0,0,1-5.594-101.75l785.175-876.2a72.088,72.088,0,0,1,101.723-5.61l73.562,65.976a72.023,72.023,0,0,1,5.573,101.713L372.231,1624.907a72.187,72.187,0,0,1-53.7,23.993Z" transform="translate(-161.681 -551.397)" fill="#fff"/>
      <g id="Group_14" data-name="Group 14" transform="translate(0)">
        <path id="Path_25" data-name="Path 25" d="M1039.4,583.135a60.549,60.549,0,0,1,40.508,15.483l73.568,65.96a60.728,60.728,0,0,1,4.7,85.77L373,1626.545a60.731,60.731,0,0,1-85.77,4.744l-73.562-65.933a60.737,60.737,0,0,1-4.723-85.818l785.181-876.2c12-13.389-16.685,0,0,0m45.278-42.773a83.481,83.481,0,0,0-62.086,27.7L192.143,1464.478a83.283,83.283,0,0,0,6.486,117.708l73.541,65.922a83.3,83.3,0,0,0,117.633-6.491l785.175-876.208a83.261,83.261,0,0,0-6.438-117.644L1095,581.816a83.3,83.3,0,0,0-55.595-21.247Z" transform="translate(-170.849 -560.568)" fill="#fee400"/>
      </g>
    </g>
    <g id="Group_22" data-name="Group 22" transform="translate(1160.974 1964.124)">
      <g id="Group_21" data-name="Group 21" transform="translate(0 0)">
        <g id="Group_17" data-name="Group 17" transform="translate(0 707.207)">
          <path id="Path_26" data-name="Path 26" d="M366.219,963.608,265.293,1076.229l-74.047-268.61,100.925-112.6Z" transform="translate(-191.247 -695.022)" fill="#fee400"/>
        </g>
        <g id="Group_18" data-name="Group 18" transform="translate(211.221 471.431)">
          <path id="Path_27" data-name="Path 27" d="M405.8,919.5,304.854,1032.147,230.782,763.561,331.757,650.89Z" transform="translate(-230.782 -650.89)" fill="#fee400"/>
        </g>
        <g id="Group_19" data-name="Group 19" transform="translate(422.492 235.704)">
          <path id="Path_28" data-name="Path 28" d="M445.324,875.354,344.373,988,270.326,719.437,371.3,606.768Z" transform="translate(-270.326 -606.768)" fill="#fee400"/>
        </g>
        <g id="Group_20" data-name="Group 20" transform="translate(633.738)">
          <path id="Path_29" data-name="Path 29" d="M484.841,831.214,383.891,943.86,309.866,675.247l100.928-112.6Z" transform="translate(-309.866 -562.65)" fill="#fee400"/>
        </g>
      </g>
    </g>
    <g id="Group_25" data-name="Group 25" transform="translate(1196.206 2483.649)">
      <g id="Group_24" data-name="Group 24" transform="translate(0 0)">
        <path id="Path_30" data-name="Path 30" d="M197.841,1227.255l328.3,655.126a96.979,96.979,0,0,0,130.151,43.248l958.628-480.439a96.911,96.911,0,0,0,43.248-130.151L1329.89,659.892Z" transform="translate(-197.841 -659.892)" fill="#fee400"/>
      </g>
    </g>
    <g id="Group_27" data-name="Group 27" transform="translate(1172.394 2459.104)">
      <path id="Path_31" data-name="Path 31" d="M289.531,1412.007a11.236,11.236,0,0,1-10.1-6.224l-82.741-165.188a11.288,11.288,0,0,1,5.033-15.146L1332.786,658.609a11.3,11.3,0,0,1,5.059-1.2,11.1,11.1,0,0,1,3.558.571,11.38,11.38,0,0,1,6.539,5.653L1430.705,828.8a11.288,11.288,0,0,1-5.033,15.146L294.59,1410.81A11.312,11.312,0,0,1,289.531,1412.007Z" transform="translate(-184.213 -646.118)" fill="#fff"/>
      <g id="Group_26" data-name="Group 26" transform="translate(0 0)">
        <path id="Path_32" data-name="Path 32" d="M1347.017,677.876l82.768,165.167L298.7,1409.9l-82.746-165.188L1347.017,677.876m0-22.578a22.626,22.626,0,0,0-10.124,2.4L205.837,1224.531a22.561,22.561,0,0,0-10.049,30.292l82.72,165.194a22.575,22.575,0,0,0,30.314,10.071L1439.9,863.227a22.563,22.563,0,0,0,10.049-30.292l-82.767-165.167a22.591,22.591,0,0,0-20.168-12.47Z" transform="translate(-193.384 -655.298)" fill="#fee400"/>
      </g>
    </g>
    <g id="Group_34" data-name="Group 34" transform="translate(1266.159 2463.547)">
      <g id="Group_33" data-name="Group 33" transform="translate(0)">
        <g id="Group_29" data-name="Group 29" transform="translate(0 440.365)">
          <path id="Path_33" data-name="Path 33" d="M350.9,990.53l-139.961,70.149L259,808.7l139.911-70.149Z" transform="translate(-210.935 -738.555)" fill="#fee400"/>
        </g>
        <g id="Group_30" data-name="Group 30" transform="translate(292.898 293.577)">
          <path id="Path_34" data-name="Path 34" d="M405.694,963.08l-139.936,70.149,48.041-252L453.736,711.08Z" transform="translate(-265.758 -711.08)" fill="#fee400"/>
        </g>
        <g id="Group_31" data-name="Group 31" transform="translate(585.796 146.79)">
          <path id="Path_35" data-name="Path 35" d="M460.517,935.652l-139.936,70.1,48.066-252,139.862-70.149Z" transform="translate(-320.581 -683.605)" fill="#fee400"/>
        </g>
        <g id="Group_32" data-name="Group 32" transform="translate(878.646)">
          <path id="Path_36" data-name="Path 36" d="M515.329,908.129,375.4,978.278l48.089-252L563.445,656.13Z" transform="translate(-375.395 -656.13)" fill="#fee400"/>
        </g>
      </g>
    </g>
  </g>
</svg>
