<svg xmlns="http://www.w3.org/2000/svg" width="1364" height="1355.743" viewBox="0 0 1364 1355.743">
  <g id="Group_9" data-name="Group 9" transform="translate(0 0)" opacity="0.5">
    <path id="Path_10" data-name="Path 10" d="M-710.686,664.727l-34.832,24.113V971.013l34.832,24.116,238.424,165.22V499.5Z" transform="translate(1836.263 155.023)" fill="#fee400"/>
    <path id="Path_11" data-name="Path 11" d="M74.021,1168.495a63.43,63.43,0,0,1-63.445,63.445H-922.265a63.446,63.446,0,0,1-63.467-63.445V553.8a63.446,63.446,0,0,1,63.467-63.445H10.576A63.43,63.43,0,0,1,74.021,553.8Z" transform="translate(1016.725 123.804)" fill="#fee400"/>
    <g id="Group_7" data-name="Group 7" transform="translate(507.562)">
      <path id="Path_12" data-name="Path 12" d="M-433.977,583.894c0,116.513-94.494,210.972-210.99,210.972-116.531,0-210.95-94.459-210.95-210.972,0-116.491,94.419-210.968,210.95-210.968C-528.471,372.926-433.977,467.4-433.977,583.894Z" transform="translate(952.052 -276.826)" fill="none"/>
      <path id="Path_13" data-name="Path 13" d="M-570.622,351.143c-169.6,0-307.086,137.469-307.086,307.068S-740.221,965.3-570.622,965.3s307.09-137.486,307.09-307.09S-401.024,351.143-570.622,351.143ZM-740.7,742.713a83.978,83.978,0,0,1-83.959-83.981A83.966,83.966,0,0,1-740.7,574.794a83.951,83.951,0,0,1,83.941,83.937A83.963,83.963,0,0,1-740.7,742.713Zm169.56-338.541A83.973,83.973,0,0,1-487.2,488.135a83.955,83.955,0,0,1-83.941,83.955,83.959,83.959,0,0,1-83.977-83.955A83.978,83.978,0,0,1-571.143,404.172Zm1.041,508.061a83.955,83.955,0,0,1-83.942-83.942A83.944,83.944,0,0,1-570.1,744.332a83.967,83.967,0,0,1,83.981,83.959A83.977,83.977,0,0,1-570.1,912.232Zm169.559-170.6a83.986,83.986,0,0,1-83.977-83.959,83.974,83.974,0,0,1,83.977-83.941,83.963,83.963,0,0,1,83.982,83.941A83.975,83.975,0,0,1-400.542,741.632Z" transform="translate(877.708 -351.143)" fill="#fee400"/>
    </g>
    <g id="Group_8" data-name="Group 8" transform="translate(0 106.618)">
      <ellipse id="Ellipse_1" data-name="Ellipse 1" cx="161.283" cy="161.283" rx="161.283" ry="161.283" transform="matrix(0.229, -0.973, 0.973, 0.229, 59.868, 373.852)" fill="none"/>
      <path id="Path_14" data-name="Path 14" d="M-738.978,375.31c-140.165,0-253.779,113.593-253.779,253.761S-879.143,882.85-738.978,882.85-485.2,769.236-485.2,629.071-598.81,375.31-738.978,375.31Zm-140.566,323.6a69.412,69.412,0,0,1-69.383-69.4,69.407,69.407,0,0,1,69.383-69.383,69.368,69.368,0,0,1,69.383,69.383A69.372,69.372,0,0,1-879.544,698.913ZM-739.419,419.14a69.383,69.383,0,0,1,69.387,69.383,69.385,69.385,0,0,1-69.387,69.383A69.367,69.367,0,0,1-808.8,488.523,69.364,69.364,0,0,1-739.419,419.14ZM-738.537,839a69.378,69.378,0,0,1-69.383-69.383,69.374,69.374,0,0,1,69.383-69.361,69.36,69.36,0,0,1,69.383,69.361A69.364,69.364,0,0,1-738.537,839ZM-598.43,698.013A69.363,69.363,0,0,1-667.8,628.648a69.371,69.371,0,0,1,69.365-69.4,69.379,69.379,0,0,1,69.4,69.4A69.372,69.372,0,0,1-598.43,698.013Z" transform="translate(992.757 -375.31)" fill="#fee400"/>
    </g>
  </g>
</svg>
